Coordinates
version=1
nRows=5
nColumns=53
inDegrees=yes

Units are S.I. units (second, meters, Newtons, ...)
Angles are in degrees.

endheader
time	pelvis_tilt	pelvis_list	pelvis_rot	pelvis_tx	pelvis_ty	pelvis_tz	hip_flex_r	hip_add_r	hip_rot_r	pf_flex_r	pf_rot_r	pf_tilt_r	pf_tx_r	pf_ty_r	pf_tz_r	knee_flex_r	knee_add_r	knee_rot_r	knee_tx_r	knee_ty_r	knee_tz_r	ankle_flex_r	subt_angle_r	mtp_angle_r	hip_flex_l	hip_add_l	hip_rot_l	pf_l_r3	pf_l_tx	pf_l_ty	knee_flex_l	ankle_flex_l	subt_angle_l	mtp_angle_l	lumbar_ext	lumbar_latbend	lumbar_rot	neck_ext	neck_latbend	neck_rot	arm_add_r	arm_flex_r	arm_rot_r	elbow_flex_r	pro_sup_r	wrist_flex_r	arm_add_l	arm_flex_l	arm_rot_l	elbow_flex_l	pro_sup_l	wrist_flex_l
      1.77000000	     -7.98179728	     -6.07496266	     -8.17959699	      0.69038665	      0.87425033	     -0.18061294	    -11.33531897	     11.36079967	     -2.14112257	      0.00000000	      0.00000000	      0.00000000	      0.05300000	      0.00500000	      0.00400000	     -1.71872272	     -1.83473882	      1.67136473	      0.00485297	     -0.00199556	     -0.00030738	     15.83790364	      5.69038028	      0.00000000	     29.41426179	     10.35790445	     -7.87690814	      0.06513700	      0.04435000	     -0.41871200	     -0.11129286	     -0.04739180	     -0.02297611	      0.00000000	     -9.59978999	      4.72345021	      7.47810639	      0.00000000	      0.00000000	      0.00000000	    -25.73360860	     28.77514581	     32.56346142	     28.95103795	     68.94793958	      0.00000000	    -12.76149023	    -13.85077786	     27.36812324	      3.98305817	     54.57172157	      0.00000000
      1.77500000	     -7.92460670	     -6.03604285	     -8.26813802	      0.69714712	      0.87305595	     -0.18075144	    -11.63120611	     11.20133312	     -2.06751331	      0.00000000	      0.00000000	      0.00000000	      0.05300000	      0.00500000	      0.00400000	     -1.27764993	     -1.89833774	      1.70611387	      0.00479389	     -0.00206252	     -0.00049894	     15.89016698	      5.65809989	      0.00000000	     29.55203180	     10.20969171	     -8.00381793	      0.06513700	      0.04435000	     -0.41871200	     -0.10413267	     -0.04808724	     -0.02358649	      0.00000000	     -9.63620264	      4.65603088	      7.63243046	      0.00000000	      0.00000000	      0.00000000	    -25.74317384	     28.76248484	     32.55793895	     28.93654345	     68.94586588	      0.00000000	    -12.75315180	    -14.04870241	     27.32922191	      3.93724032	     54.56975876	      0.00000000
      1.78000000	     -7.88242609	     -5.74406915	     -8.42261865	      0.70385755	      0.87180231	     -0.18087974	    -11.75195471	     10.69857382	     -2.01735629	      0.00000000	      0.00000000	      0.00000000	      0.05300000	      0.00500000	      0.00400000	     -0.54775460	     -1.84689270	      1.69691339	      0.00485787	     -0.00168253	     -0.00079441	     16.83102313	      5.45347100	      0.00000000	     29.75059842	      9.80459137	     -7.75418796	      0.06513700	      0.04435000	     -0.41871200	     -0.09344051	     -0.04914784	     -0.03292145	      0.00000000	     -9.73141647	      4.26684348	      7.74208640	      0.00000000	      0.00000000	      0.00000000	    -25.77026708	     28.72311266	     32.50287450	     28.82447206	     68.93006576	      0.00000000	    -12.77685678	    -14.23871933	     27.05061543	      3.85906724	     54.56047380	      0.00000000
      1.78500000	     -7.78615144	     -5.70514415	     -8.48568969	      0.71079443	      0.87077226	     -0.18101867	    -12.08285833	     10.56865234	     -1.95462343	      0.00000000	      0.00000000	      0.00000000	      0.05300000	      0.00500000	      0.00400000	     -0.10430783	     -1.92872659	      1.75987969	      0.00467139	     -0.00182501	     -0.00071874	     16.83524483	      5.48327432	      0.00000000	     29.79037764	      9.64408278	     -7.96384984	      0.06513700	      0.04435000	     -0.41871200	     -0.08430831	     -0.05083517	     -0.03309065	      0.00000000	     -9.70649316	      4.17918334	      7.88124512	      0.00000000	      0.00000000	      0.00000000	    -25.72012989	     28.68834522	     32.51038739	     28.81412994	     68.92817132	      0.00000000	    -12.76085188	    -14.38037157	     27.01556759	      3.82720044	     54.55886655	      0.00000000
      1.79000000	     -7.67572805	     -5.31605663	     -8.55478976	      0.71770190	      0.86968366	     -0.18127626	    -12.22592952	      9.93630452	     -2.22696185	      0.00000000	      0.00000000	      0.00000000	      0.05300000	      0.00500000	      0.00400000	      0.68124120	     -1.89030120	      1.79784429	      0.00477646	     -0.00147085	     -0.00130208	     17.75460343	      5.67569241	      0.00000000	     29.90354693	      9.08662241	     -7.77554635	      0.06513700	      0.04435000	     -0.41871200	     -0.07130088	     -0.05891380	     -0.04570538	      0.00000000	     -9.85422623	      3.67524177	      7.95453846	      0.00000000	      0.00000000	      0.00000000	    -25.55870523	     28.52607351	     32.48154054	     28.59421818	     68.90158906	      0.00000000	    -12.86160287	    -14.42388787	     26.65824478	      3.73093742	     54.54684042	      0.00000000
